<svg width="302" height="92" viewBox="0 0 302 92" fill="none" xmlns="http://www.w3.org/2000/svg">
<g clip-path="url(#clip0_4635_6820)">
<path d="M184.799 32.83C184.799 16.49 180.869 0 159.799 0C140.869 0 134.809 13.82 134.809 16.34V3.61H101.679V54.16H68.4492C68.4492 66.03 75.8392 72.23 84.5192 72.23C90.5392 72.23 96.4992 69.24 98.7192 63.44H101.679V89.58H134.809V38.13C134.809 30.43 138.199 26.12 144.449 26.12C149.019 26.12 151.769 29.63 151.769 37.02V89.58H184.799V32.83Z" fill="white"/>
<path d="M35.31 46.6C35.31 29.07 44.65 13.75 58.56 5.48999V3.60999H0V37.76H19.83V89.58H58.56V87.7C44.65 79.43 35.31 64.12 35.31 46.59V46.6Z" fill="white"/>
<path d="M69.7891 37.7599H94.0691C94.0691 27.0499 89.2991 21.45 81.9291 21.45C74.5591 21.45 69.7891 27.0499 69.7891 37.7599Z" fill="white"/>
<path d="M226.51 89.53H193.67V41.29C193.67 41.29 200.18 43.19 210.09 43.19C220 43.19 226.51 41.29 226.51 41.29V89.53Z" fill="white"/>
<path d="M260.339 26.25C260.339 24.19 262.399 22.3 265.889 22.3C274.559 22.3 273.609 30.1 273.609 30.1H300.169C300.169 20.63 297.399 0 266.649 0C238.599 0 232.939 17.42 232.939 28.54C232.939 43.81 243.579 50.88 250.549 53.75C266.869 60.47 275.209 59.25 275.209 65.12C275.209 67.41 272.889 69.6 268.029 69.6C258.219 69.6 257.829 60.14 257.829 60.13H231.249C230.339 69.72 234.459 91.74 265.739 91.74C297.019 91.74 302.009 74.88 302.009 62.62C302.009 32.5 260.349 37.04 260.349 26.24L260.339 26.25Z" fill="white"/>
<path d="M210.091 36.42C220.148 36.42 228.301 28.2671 228.301 18.21C228.301 8.15289 220.148 0 210.091 0C200.034 0 191.881 8.15289 191.881 18.21C191.881 28.2671 200.034 36.42 210.091 36.42Z" fill="white"/>
</g>
<defs>
<clipPath id="clip0_4635_6820">
<rect width="302" height="91.75" fill="white"/>
</clipPath>
</defs>
</svg>
